<svg xmlns="http://www.w3.org/2000/svg" xmlns:xlink="http://www.w3.org/1999/xlink" version="1.1" width="256" height="256" viewBox="0 0 256 256" xml:space="preserve">

<defs>
</defs>
<g style="stroke: none; stroke-width: 0; stroke-dasharray: none; stroke-linecap: butt; stroke-linejoin: miter; stroke-miterlimit: 10; fill: none; fill-rule: nonzero; opacity: 1;" transform="translate(1.4065934065934016 1.4065934065934016) scale(2.81 2.81)" >
	<path d="M 63.089 1.483 H 15.755 c -1.551 0 -2.808 1.257 -2.808 2.808 v 81.418 c 0 1.551 1.257 2.808 2.808 2.808 h 58.49 c 1.551 0 2.808 -1.257 2.808 -2.808 V 14.927 L 63.089 1.483 z M 65.896 14.927 c -1.551 0 -2.808 -1.257 -2.808 -2.808 V 1.483 l 13.964 13.444 H 65.896 z" style="stroke: none; stroke-width: 1; stroke-dasharray: none; stroke-linecap: butt; stroke-linejoin: miter; stroke-miterlimit: 10; fill: none; fill-rule: nonzero; opacity: 1;" transform=" matrix(1 0 0 1 0 0) " stroke-linecap="round" />
	<path d="M 75.569 83.678 v 2.031 c 0 0.729 -0.594 1.323 -1.324 1.323 h -58.49 c -0.73 0 -1.324 -0.594 -1.324 -1.323 V 4.291 c 0 -0.73 0.594 -1.324 1.324 -1.324 h 45.851 v 9.153 c 0 2.366 1.925 4.291 4.29 4.291 h 9.673 V 83.678 c 1.021 0.094 1.601 1.553 2.967 -0.566 V 14.94 c 0.001 -0.084 -0.006 -0.166 -0.018 -0.248 c 0 0 -0.001 0 -0.001 -0.001 c 0 -0.001 0 -0.001 0 -0.003 v 0 c 0 -0.001 -0.001 -0.002 -0.001 -0.003 c -0.007 -0.042 -0.015 -0.082 -0.026 -0.123 v 0 c -0.001 -0.001 0.002 -0.003 -0.001 -0.003 c 0 -0.002 0 -0.003 -0.001 -0.004 v 0 c -0.066 -0.253 -0.199 -0.489 -0.392 -0.68 l -0.001 0 c 0 0 -0.001 -0.001 -0.001 -0.001 c -0.007 -0.001 -0.002 -0.001 -0.003 -0.002 c 0.003 -0.005 -0.002 -0.002 -0.002 -0.002 c -0.002 -0.001 0.001 -0.001 -0.003 -0.002 c 0.001 -0.001 -0.002 -0.001 -0.002 -0.002 c -0.001 -0.001 -0.002 -0.001 -0.003 -0.002 L 64.118 0.415 c -0.001 -0.001 -0.002 -0.002 -0.003 -0.003 c -0.001 -0.001 -0.002 -0.002 -0.003 -0.003 c -0.201 -0.19 -0.444 -0.317 -0.703 -0.374 c -0.038 -0.008 -0.075 -0.015 -0.113 -0.02 c -0.001 0 -0.001 0 -0.001 0 c -0.002 -0.001 -0.003 0 -0.005 -0.001 c -0.002 0 -0.004 -0.001 -0.004 0 c -0.001 0 -0.003 0 -0.005 0 c -0.002 0 -0.003 -0.001 -0.005 0 c 0 0 -0.001 0 -0.005 -0.001 C 63.207 0.003 63.131 0.003 63.079 0 H 15.755 c -2.366 0 -4.291 1.925 -4.291 4.291 V 85.71 c 0 2.365 1.925 4.29 4.291 4.29 h 58.49 c 2.366 0 4.291 -1.925 4.291 -4.29 v -2.598 C 77.58 83.39 76.59 83.584 75.569 83.678 z M 64.573 4.971 l 8.8 8.473 h -7.477 c -0.729 0 -1.323 -0.594 -1.323 -1.324 V 4.971 z" style="stroke: none; stroke-width: 1; stroke-dasharray: none; stroke-linecap: butt; stroke-linejoin: miter; stroke-miterlimit: 10; fill: rgb(0,0,0); fill-rule: nonzero; opacity: 1;" transform=" matrix(1 0 0 1 0 0) " stroke-linecap="round" />
	<path d="M 21.924 66.401 c -0.82 0 -1.484 0.664 -1.484 1.484 s 0.664 1.484 1.484 1.484 h 22.668 c 0.819 0 1.484 -0.664 1.484 -1.484 s -0.664 -1.484 -1.484 -1.484 H 21.924 z" style="stroke: none; stroke-width: 1; stroke-dasharray: none; stroke-linecap: butt; stroke-linejoin: miter; stroke-miterlimit: 10; fill: rgb(0,0,0); fill-rule: nonzero; opacity: 1;" transform=" matrix(1 0 0 1 0 0) " stroke-linecap="round" />
	<path d="M 21.924 39.698 h 47.294 c 0.819 0 1.484 -0.664 1.484 -1.484 s -0.664 -1.484 -1.484 -1.484 H 21.924 c -0.82 0 -1.484 0.664 -1.484 1.484 S 21.105 39.698 21.924 39.698 z" style="stroke: none; stroke-width: 1; stroke-dasharray: none; stroke-linecap: butt; stroke-linejoin: miter; stroke-miterlimit: 10; fill: rgb(0,0,0); fill-rule: nonzero; opacity: 1;" transform=" matrix(1 0 0 1 0 0) " stroke-linecap="round" />
	<path d="M 70.702 57.995 c 0 -0.819 -0.664 -1.484 -1.484 -1.484 H 21.924 c -0.82 0 -1.484 0.664 -1.484 1.484 s 0.664 1.484 1.484 1.484 h 47.294 C 70.038 59.478 70.702 58.814 70.702 57.995 z" style="stroke: none; stroke-width: 1; stroke-dasharray: none; stroke-linecap: butt; stroke-linejoin: miter; stroke-miterlimit: 10; fill: rgb(0,0,0); fill-rule: nonzero; opacity: 1;" transform=" matrix(1 0 0 1 0 0) " stroke-linecap="round" />
	<path d="M 21.924 29.808 h 22.668 c 0.819 0 1.484 -0.664 1.484 -1.484 c 0 -0.82 -0.664 -1.484 -1.484 -1.484 H 21.924 c -0.82 0 -1.484 0.664 -1.484 1.484 C 20.441 29.144 21.105 29.808 21.924 29.808 z" style="stroke: none; stroke-width: 1; stroke-dasharray: none; stroke-linecap: butt; stroke-linejoin: miter; stroke-miterlimit: 10; fill: rgb(0,0,0); fill-rule: nonzero; opacity: 1;" transform=" matrix(1 0 0 1 0 0) " stroke-linecap="round" />
	<path d="M 21.924 49.588 h 47.294 c 0.819 0 1.484 -0.664 1.484 -1.484 c 0 -0.819 -0.664 -1.484 -1.484 -1.484 H 21.924 c -0.82 0 -1.484 0.664 -1.484 1.484 C 20.441 48.924 21.105 49.588 21.924 49.588 z" style="stroke: none; stroke-width: 1; stroke-dasharray: none; stroke-linecap: butt; stroke-linejoin: miter; stroke-miterlimit: 10; fill: rgb(0,0,0); fill-rule: nonzero; opacity: 1;" transform=" matrix(1 0 0 1 0 0) " stroke-linecap="round" />
</g>
</svg>